<svg xmlns="http://www.w3.org/2000/svg" viewBox="0 0 720 460" width="720" height="460">
  <title>DISTINCT takror qiymatlarni olib tashlaydi: 10 qatordan 4 ta takrorsiz janr qoladi</title>
  <defs>
    <marker id="strelka9b" markerWidth="12" markerHeight="12" refX="9" refY="5" orient="auto">
      <path d="M0,0 L10,5 L0,10 z" fill="#475569"/>
    </marker>
  </defs>

  <!-- fon -->
  <rect x="0" y="0" width="720" height="460" fill="#f8fafc"/>

  <text x="360" y="36" text-anchor="middle" font-family="Segoe UI, system-ui, sans-serif" font-size="20" font-weight="bold" fill="#1e293b">DISTINCT — takror qiymatlarni olib tashlaydi</text>

  <!-- chap panel: takror bilan -->
  <rect x="60" y="70" width="200" height="300" rx="10" fill="#e2e8f0" stroke="#94a3b8" stroke-width="2"/>
  <text x="160" y="94" text-anchor="middle" font-family="Segoe UI, system-ui, sans-serif" font-size="14" font-weight="bold" fill="#1e293b">janr — 10 qator</text>
  <rect x="75" y="106" width="170" height="21" rx="5" fill="#f8fafc" stroke="#2563eb" stroke-width="1.5"/>
  <text x="160" y="121" text-anchor="middle" font-family="Segoe UI, system-ui, sans-serif" font-size="13" fill="#2563eb">roman</text>
  <rect x="75" y="131" width="170" height="21" rx="5" fill="#f8fafc" stroke="#2563eb" stroke-width="1.5"/>
  <text x="160" y="146" text-anchor="middle" font-family="Segoe UI, system-ui, sans-serif" font-size="13" fill="#2563eb">roman</text>
  <rect x="75" y="156" width="170" height="21" rx="5" fill="#f8fafc" stroke="#d97706" stroke-width="1.5"/>
  <text x="160" y="171" text-anchor="middle" font-family="Segoe UI, system-ui, sans-serif" font-size="13" fill="#d97706">sarguzasht</text>
  <rect x="75" y="181" width="170" height="21" rx="5" fill="#f8fafc" stroke="#d97706" stroke-width="1.5"/>
  <text x="160" y="196" text-anchor="middle" font-family="Segoe UI, system-ui, sans-serif" font-size="13" fill="#d97706">sarguzasht</text>
  <rect x="75" y="206" width="170" height="21" rx="5" fill="#f8fafc" stroke="#16a34a" stroke-width="1.5"/>
  <text x="160" y="221" text-anchor="middle" font-family="Segoe UI, system-ui, sans-serif" font-size="13" fill="#16a34a">sheriyat</text>
  <rect x="75" y="231" width="170" height="21" rx="5" fill="#f8fafc" stroke="#2563eb" stroke-width="1.5"/>
  <text x="160" y="246" text-anchor="middle" font-family="Segoe UI, system-ui, sans-serif" font-size="13" fill="#2563eb">roman</text>
  <rect x="75" y="256" width="170" height="21" rx="5" fill="#f8fafc" stroke="#2563eb" stroke-width="1.5"/>
  <text x="160" y="271" text-anchor="middle" font-family="Segoe UI, system-ui, sans-serif" font-size="13" fill="#2563eb">roman</text>
  <rect x="75" y="281" width="170" height="21" rx="5" fill="#f8fafc" stroke="#d97706" stroke-width="1.5"/>
  <text x="160" y="296" text-anchor="middle" font-family="Segoe UI, system-ui, sans-serif" font-size="13" fill="#d97706">sarguzasht</text>
  <rect x="75" y="306" width="170" height="21" rx="5" fill="#f8fafc" stroke="#dc2626" stroke-width="1.5"/>
  <text x="160" y="321" text-anchor="middle" font-family="Segoe UI, system-ui, sans-serif" font-size="13" fill="#dc2626">ertak</text>
  <rect x="75" y="331" width="170" height="21" rx="5" fill="#f8fafc" stroke="#16a34a" stroke-width="1.5"/>
  <text x="160" y="346" text-anchor="middle" font-family="Segoe UI, system-ui, sans-serif" font-size="13" fill="#16a34a">sheriyat</text>

  <!-- pill va strelka -->
  <rect x="278" y="180" width="164" height="26" rx="13" fill="#2563eb"/>
  <text x="360" y="198" text-anchor="middle" font-family="Segoe UI, system-ui, sans-serif" font-size="13" fill="#f8fafc">SELECT DISTINCT janr</text>
  <line x1="265" y1="230" x2="455" y2="230" stroke="#475569" stroke-width="2.5" marker-end="url(#strelka9b)"/>

  <!-- o'ng panel: takrorsiz -->
  <rect x="460" y="145" width="200" height="160" rx="10" fill="#e2e8f0" stroke="#94a3b8" stroke-width="2"/>
  <text x="560" y="169" text-anchor="middle" font-family="Segoe UI, system-ui, sans-serif" font-size="14" font-weight="bold" fill="#1e293b">janr — 4 qator</text>
  <rect x="475" y="181" width="170" height="24" rx="5" fill="#f8fafc" stroke="#2563eb" stroke-width="1.5"/>
  <text x="560" y="198" text-anchor="middle" font-family="Segoe UI, system-ui, sans-serif" font-size="13" fill="#2563eb">roman</text>
  <rect x="475" y="211" width="170" height="24" rx="5" fill="#f8fafc" stroke="#d97706" stroke-width="1.5"/>
  <text x="560" y="228" text-anchor="middle" font-family="Segoe UI, system-ui, sans-serif" font-size="13" fill="#d97706">sarguzasht</text>
  <rect x="475" y="241" width="170" height="24" rx="5" fill="#f8fafc" stroke="#16a34a" stroke-width="1.5"/>
  <text x="560" y="258" text-anchor="middle" font-family="Segoe UI, system-ui, sans-serif" font-size="13" fill="#16a34a">sheriyat</text>
  <rect x="475" y="271" width="170" height="24" rx="5" fill="#f8fafc" stroke="#dc2626" stroke-width="1.5"/>
  <text x="560" y="288" text-anchor="middle" font-family="Segoe UI, system-ui, sans-serif" font-size="13" fill="#dc2626">ertak</text>

  <!-- pastki izohlar -->
  <text x="360" y="408" text-anchor="middle" font-family="Segoe UI, system-ui, sans-serif" font-size="15" font-weight="bold" fill="#1e293b">10 qator → 4 qator: har bir qiymatdan faqat bittasi qoladi</text>
  <text x="360" y="434" text-anchor="middle" font-family="Segoe UI, system-ui, sans-serif" font-size="13" fill="#475569">DISTINCT SELECT'dagi barcha ustunlarga birgalikda taalluqli — faqat birinchisiga emas</text>
</svg>
